<svg width="126" height="42" viewBox="0 0 126 42" fill="none" xmlns="http://www.w3.org/2000/svg">
<path d="M3 4C3 3.44772 3.44772 3 4 3H121C122.105 3 123 3.89543 123 5V37C123 37.5523 122.552 38 122 38H4C3.44771 38 3 37.5523 3 37V4Z" fill="#8247FF" fill-opacity="0.2"/>
<path d="M6 2H3C1.89543 2 1 2.89543 1 4L1 38C1 39.1046 1.89543 40 3 40H6" stroke="#8247FF" stroke-width="2"/>
<rect x="6" y="1" width="103" height="2" fill="#8247FF"/>
<rect x="6" y="39" width="103" height="2" fill="#8247FF"/>
<path d="M109 1.99878H110.827C111.333 1.99878 111.821 2.19119 112.192 2.53713L124.365 13.9068C124.77 14.285 125 14.8143 125 15.3685V38.0012C125 39.1058 124.105 40.0012 123 40.0012H109" stroke="#8247FF" stroke-width="2"/>
</svg>
